<svg xmlns="http://www.w3.org/2000/svg" width="800" height="850" viewBox="0 0 800 850"><rect width="800" height="850" fill="#101c26"/><text x="20" y="36" fill="#ecf4ed" font-family="sans-serif" font-size="20">DROPZONE · COMBAT</text><g transform="translate(20,52)"><rect width="760" height="360" rx="16" fill="#273b41"/><rect x="16" y="8" width="218" height="58" rx="10" fill="#153947" fill-opacity=".8" stroke="#63dbdf"/><text x="125.0" y="42.0" fill="#ecf4ed" text-anchor="middle" font-family="sans-serif" font-size="13">HP 100  |  SHIELD 50</text><rect x="280" y="8" width="200" height="26" rx="10" fill="#153947" fill-opacity=".8" stroke="#63dbdf"/><text x="380.0" y="26.0" fill="#ecf4ed" text-anchor="middle" font-family="sans-serif" font-size="13">11 ALIVE</text><rect x="280" y="38" width="200" height="24" rx="10" fill="#153947" fill-opacity=".8" stroke="#63dbdf"/><text x="380.0" y="55.0" fill="#ecf4ed" text-anchor="middle" font-family="sans-serif" font-size="13">ZONE 0:30</text><rect x="622" y="8" width="122" height="78" rx="10" fill="#153947" fill-opacity=".8" stroke="#63dbdf"/><text x="683.0" y="52.0" fill="#ecf4ed" text-anchor="middle" font-family="sans-serif" font-size="13">MINIMAP</text><text x="380" y="186" fill="#ecf4ed" font-family="sans-serif" font-size="28" text-anchor="middle">+</text><rect x="240" y="250" width="280" height="40" rx="10" fill="#153947" fill-opacity=".8" stroke="#63dbdf"/><text x="380.0" y="275.0" fill="#ecf4ed" text-anchor="middle" font-family="sans-serif" font-size="13">RIFLE 23 / 28 · 198</text><rect x="672" y="92" width="72" height="72" rx="10" fill="#9d512a" fill-opacity=".8" stroke="#ffbc68"/><text x="708.0" y="133.0" fill="#ecf4ed" text-anchor="middle" font-family="sans-serif" font-size="13">FIRE</text><rect x="592" y="100" width="64" height="64" rx="10" fill="#153947" fill-opacity=".8" stroke="#63dbdf"/><text x="624.0" y="137.0" fill="#ecf4ed" text-anchor="middle" font-family="sans-serif" font-size="13">AIM</text><rect x="512" y="100" width="64" height="64" rx="10" fill="#153947" fill-opacity=".8" stroke="#63dbdf"/><text x="544.0" y="137.0" fill="#ecf4ed" text-anchor="middle" font-family="sans-serif" font-size="13">RELOAD</text><rect x="672" y="172" width="64" height="64" rx="10" fill="#153947" fill-opacity=".8" stroke="#63dbdf"/><text x="704.0" y="209.0" fill="#ecf4ed" text-anchor="middle" font-family="sans-serif" font-size="13">BUILD</text><rect x="592" y="172" width="64" height="64" rx="10" fill="#153947" fill-opacity=".8" stroke="#63dbdf"/><text x="624.0" y="209.0" fill="#ecf4ed" text-anchor="middle" font-family="sans-serif" font-size="13">CROUCH</text><rect x="512" y="172" width="64" height="64" rx="10" fill="#153947" fill-opacity=".8" stroke="#63dbdf"/><text x="544.0" y="209.0" fill="#ecf4ed" text-anchor="middle" font-family="sans-serif" font-size="13">SPRINT</text><rect x="250.0" y="296" width="80" height="48" rx="10" fill="#153947" fill-opacity=".8" stroke="#63dbdf"/><text x="290.0" y="325.0" fill="#ecf4ed" text-anchor="middle" font-family="sans-serif" font-size="13">1 PISTOL</text><rect x="340.0" y="296" width="80" height="48" rx="10" fill="#153947" fill-opacity=".8" stroke="#63dbdf"/><text x="380.0" y="325.0" fill="#ecf4ed" text-anchor="middle" font-family="sans-serif" font-size="13">2 RIFLE</text><rect x="430.0" y="296" width="80" height="48" rx="10" fill="#153947" fill-opacity=".8" stroke="#63dbdf"/><text x="470.0" y="325.0" fill="#ecf4ed" text-anchor="middle" font-family="sans-serif" font-size="13">3 SHOTGUN</text><circle cx="76" cy="299" r="43" fill="#bacad0" fill-opacity=".14" stroke="#bacad0" stroke-dasharray="4 4"/><circle cx="704" cy="306" r="36" fill="#bacad0" fill-opacity=".14" stroke="#bacad0" stroke-dasharray="4 4"/><text x="76" y="304" fill="#bacad0" text-anchor="middle" font-family="sans-serif" font-size="12">NATIVE MOVE</text><text x="704" y="311" fill="#bacad0" text-anchor="middle" font-family="sans-serif" font-size="12">JUMP</text></g><text x="20" y="444" fill="#ecf4ed" font-family="sans-serif" font-size="20">DROPZONE · BUILD</text><g transform="translate(20,460)"><rect width="760" height="360" rx="16" fill="#273b41"/><rect x="16" y="8" width="218" height="58" rx="10" fill="#153947" fill-opacity=".8" stroke="#63dbdf"/><text x="125.0" y="42.0" fill="#ecf4ed" text-anchor="middle" font-family="sans-serif" font-size="13">HP 100  |  SHIELD 50</text><rect x="280" y="8" width="200" height="26" rx="10" fill="#153947" fill-opacity=".8" stroke="#63dbdf"/><text x="380.0" y="26.0" fill="#ecf4ed" text-anchor="middle" font-family="sans-serif" font-size="13">11 ALIVE</text><rect x="280" y="38" width="200" height="24" rx="10" fill="#153947" fill-opacity=".8" stroke="#63dbdf"/><text x="380.0" y="55.0" fill="#ecf4ed" text-anchor="middle" font-family="sans-serif" font-size="13">ZONE 0:30</text><rect x="622" y="8" width="122" height="78" rx="10" fill="#153947" fill-opacity=".8" stroke="#63dbdf"/><text x="683.0" y="52.0" fill="#ecf4ed" text-anchor="middle" font-family="sans-serif" font-size="13">MINIMAP</text><text x="380" y="186" fill="#ecf4ed" font-family="sans-serif" font-size="28" text-anchor="middle">+</text><rect x="240" y="250" width="280" height="40" rx="10" fill="#153947" fill-opacity=".8" stroke="#63dbdf"/><text x="380.0" y="275.0" fill="#ecf4ed" text-anchor="middle" font-family="sans-serif" font-size="13">BUILD ENERGY 60</text><rect x="512" y="172" width="64" height="64" rx="10" fill="#153947" fill-opacity=".8" stroke="#63dbdf"/><text x="544.0" y="209.0" fill="#ecf4ed" text-anchor="middle" font-family="sans-serif" font-size="13">SPRINT</text><rect x="512" y="100" width="64" height="64" rx="10" fill="#153947" fill-opacity=".8" stroke="#63dbdf"/><text x="544.0" y="137.0" fill="#ecf4ed" text-anchor="middle" font-family="sans-serif" font-size="13">WALL</text><rect x="592" y="100" width="64" height="64" rx="10" fill="#153947" fill-opacity=".8" stroke="#63dbdf"/><text x="624.0" y="137.0" fill="#ecf4ed" text-anchor="middle" font-family="sans-serif" font-size="13">FLOOR</text><rect x="672" y="100" width="64" height="64" rx="10" fill="#153947" fill-opacity=".8" stroke="#63dbdf"/><text x="704.0" y="137.0" fill="#ecf4ed" text-anchor="middle" font-family="sans-serif" font-size="13">RAMP</text><rect x="592" y="172" width="64" height="64" rx="10" fill="#9d512a" fill-opacity=".8" stroke="#ffbc68"/><text x="624.0" y="209.0" fill="#ecf4ed" text-anchor="middle" font-family="sans-serif" font-size="13">PLACE</text><rect x="672" y="172" width="64" height="64" rx="10" fill="#153947" fill-opacity=".8" stroke="#63dbdf"/><text x="704.0" y="209.0" fill="#ecf4ed" text-anchor="middle" font-family="sans-serif" font-size="13">COMBAT</text><rect x="250.0" y="296" width="80" height="48" rx="10" fill="#153947" fill-opacity=".8" stroke="#63dbdf"/><text x="290.0" y="325.0" fill="#ecf4ed" text-anchor="middle" font-family="sans-serif" font-size="13">1 PISTOL</text><rect x="340.0" y="296" width="80" height="48" rx="10" fill="#153947" fill-opacity=".8" stroke="#63dbdf"/><text x="380.0" y="325.0" fill="#ecf4ed" text-anchor="middle" font-family="sans-serif" font-size="13">2 RIFLE</text><rect x="430.0" y="296" width="80" height="48" rx="10" fill="#153947" fill-opacity=".8" stroke="#63dbdf"/><text x="470.0" y="325.0" fill="#ecf4ed" text-anchor="middle" font-family="sans-serif" font-size="13">3 SHOTGUN</text><circle cx="76" cy="299" r="43" fill="#bacad0" fill-opacity=".14" stroke="#bacad0" stroke-dasharray="4 4"/><circle cx="704" cy="306" r="36" fill="#bacad0" fill-opacity=".14" stroke="#bacad0" stroke-dasharray="4 4"/><text x="76" y="304" fill="#bacad0" text-anchor="middle" font-family="sans-serif" font-size="12">NATIVE MOVE</text><text x="704" y="311" fill="#bacad0" text-anchor="middle" font-family="sans-serif" font-size="12">JUMP</text></g><text x="20" y="843" fill="#a9bac1" font-family="sans-serif" font-size="12">Layout diagram, not a Roblox screenshot. Native control positions require device testing.</text></svg>